{"title":"One.True.Thing.1998.720p.WEB-DL.DD5.1.H264-FGT","uid":12018599,"size":4276029667,"categoryP":"video","categoryS":"hd___movies","magnet":"?xt=urn:btih:19f218a8ff58e6248c9128adbe21bef82951b1cf&amp;dn=One.True.Thing.1998.720p.WEB-DL.DD5.1.H264-FGT&amp;tr=udp%3A%2F%2Ftracker.openbittorrent.com%3A80&amp;tr=udp%3A%2F%2Fopen.demonii.com%3A1337&amp;tr=udp%3A%2F%2Ftracker.coppersurfer.tk%3A6969&amp;tr=udp%3A%2F%2Fexodus.desync.com%3A6969","seeders":4,"leechers":3,"uploader":null,"files":3,"time":1434359507,"description":"Video\nID                                       : 1\nFormat                                   : AVC\nFormat/Info                              : Advanced Video Codec\nFormat profile                           : &lt;a class=&quot;__cf_email__&quot; href=&quot;/cdn-cgi/l/email-protection&quot; data-cfemail=&quot;2f674648476f631c011e&quot;&gt;[email&amp;#160;protected]&lt;/a&gt;&lt;script data-cfhash='f9e31' type=&quot;text/javascript&quot;&gt;\n/* &lt;![CDATA[ */!function(){try{var t=&quot;currentScript&quot;in document?document.currentScript:function(){for(var t=document.getElementsByTagName(&quot;script&quot;),e=t.length;e--;)if(t[e].getAttribute(&quot;data-cfhash&quot;))return t[e]}();if(t&amp;&amp;t.previousSibling){var e,r,n,i,c=t.previousSibling,a=c.getAttribute(&quot;data-cfemail&quot;);if(a){for(e=&quot;&quot;,r=parseInt(a.substr(0,2),16),n=2;a.length-n;n+=2)i=parseInt(a.substr(n,2),16)^r,e+=String.fromCharCode(i);e=document.createTextNode(e),c.parentNode.replaceChild(e,c)}t.parentNode.removeChild(t);}}catch(u){}}()/* ]]&gt; */&lt;/script&gt;\nFormat settings, CABAC                   : No\nFormat settings, ReFrames                : 2 frames\nCodec ID                                 : V_MPEG4/ISO/AVC\nDuration                                 : 2h 7mn\nBit rate                                 : 4 005 Kbps\nWidth                                    : 1 280 pixels\nHeight                                   : 692 pixels\nDisplay aspect ratio                     : 1.85:1\nFrame rate mode                          : Constant\nFrame rate                               : 23.976 fps\nColor space                              : YUV\nChroma subsampling                       : 4:2:0\nBit depth                                : 8 bits\nScan type                                : Progressive\nBits/(Pixel*Frame)                       : 0.189\nStream size                              : 3.56 GiB (89%)\nTitle                                    : One.True.Thing.1998.720p.WEB-DL.DD5.1.H264-FGT\nLanguage                                 : English\nDefault                                  : Yes\nForced                                   : No\nColor range                              : Limited\nColor primaries                          : BT.709\nTransfer characteristics                 : BT.709\nMatrix coefficients                      : BT.709\n\nAudio\nID                                       : 2\nFormat                                   : AC-3\nFormat/Info                              : Audio Coding 3\nMode extension                           : CM (complete main)\nFormat settings, Endianness              : Big\nCodec ID                                 : A_AC3\nDuration                                 : 2h 7mn\nBit rate mode                            : Constant\nBit rate                                 : 384 Kbps\nChannel(s)                               : 6 channels\nChannel positions                        : Front: L C R, Side: L R, LFE\nSampling rate                            : 48.0 KHz\nBit depth                                : 16 bits\nCompression mode                         : Lossy\nStream size                              : 350 MiB (9%)\nTitle                                    : One.True.Thing.1998.720p.WEB-DL.DD5.1.H264-FGT\nLanguage                                 : English\nDefault                                  : Yes\nForced                                   : No\n\nText\nID                                       : 3\nFormat                                   : UTF-8\nCodec ID                                 : S_TEXT/UTF8\nCodec ID/Info                            : UTF-8 Plain Text\nLanguage                                 : English\nDefault                                  : Yes\nForced                                   : No\n\nMenu\n00:00:00.000                             : en:Main Titles\n00:02:11.000                             : en:A Normal Life\n00:06:41.000                             : en:Coming Home\n00:10:47.000                             : enad's Birthday\n00:14:52.000                             : en:Writer-To-Writer\n00:18:55.000                             : eno Ya Wanna Dance?\n00:21:04.000                             : en:Cancer or Career?\n00:25:59.000                             : en:Moving Home\n00:32:02.000                             : en:The New Minnie\n00:35:57.000                             : en:My Mother's Life\n00:41:07.000                             : enad's Secret\n00:42:53.000                             : en:The Pain\n00:46:30.000                             : en:A Surprise\n00:50:28.000                             : en:More is More\n00:55:00.000                             : enad's Other Life\n00:58:52.000                             : eninner Guests\n01:04:03.000                             : enealing With It\n01:08:17.000                             : en:What Counts\n01:13:15.000                             : en:Real Life\n01:17:15.000                             : en:The Next Part\n01:21:05.000                             : en:Happy Holidays\n01:28:19.000                             : en:The &quot;F&quot; Word\n01:30:02.000                             : en:Kate's Decline\n01:31:57.000                             : en:The Deep Thoughts\n01:37:05.000                             : en:Let's Go Home...\n01:42:25.000                             : en:This Isn't Living\n01:49:39.000                             : en:That Last Night\n01:54:02.000                             : en:The Funeral\n01:58:16.000                             : en:My One True Thing\n02:03:00.000                             : en:End Titles","torrent":{"xt":"urn:btih:19f218a8ff58e6248c9128adbe21bef82951b1cf","amp;dn":"One.True.Thing.1998.720p.WEB-DL.DD5.1.H264-FGT","amp;tr":["udp%3A%2F%2Ftracker.openbittorrent.com%3A80","udp%3A%2F%2Fopen.demonii.com%3A1337","udp%3A%2F%2Ftracker.coppersurfer.tk%3A6969","udp%3A%2F%2Fexodus.desync.com%3A6969"],"infoHash":"19f218a8ff58e6248c9128adbe21bef82951b1cf","infoHashBuffer":{"type":"Buffer","data":[25,242,24,168,255,88,230,36,140,145,40,173,190,33,190,248,41,81,177,207]},"announce":[],"urlList":[]}}